<svg width="386" height="330" xmlns="http://www.w3.org/2000/svg" xmlns:xlink="http://www.w3.org/1999/xlink" overflow="hidden"><defs><clipPath id="clip0"><rect x="1666" y="1025" width="386" height="330"/></clipPath><clipPath id="clip1"><rect x="1846" y="1135" width="206" height="205"/></clipPath><clipPath id="clip2"><rect x="1846" y="1135" width="206" height="205"/></clipPath><clipPath id="clip3"><rect x="1846" y="1135" width="206" height="205"/></clipPath><clipPath id="clip4"><rect x="1666" y="1025" width="331" height="331"/></clipPath><clipPath id="clip5"><rect x="1666" y="1025" width="331" height="331"/></clipPath><clipPath id="clip6"><rect x="1666" y="1025" width="331" height="331"/></clipPath></defs><g clip-path="url(#clip0)" transform="translate(-1666 -1025)"><g clip-path="url(#clip1)"><g clip-path="url(#clip2)"><g clip-path="url(#clip3)"><path d="M1986.02 1295.16 1987.72 1275.94 2012.49 1275.94 2009.29 1295.16 1986.02 1295.16ZM1886.51 1275.94 1911.28 1275.94 1912.98 1295.16 1889.92 1295.16 1886.51 1275.94ZM1906.79 1220.42 1908.5 1239.64 1880.31 1239.64 1877.11 1220.42 1906.79 1220.42ZM1948.01 1179.63C1948.65 1178.99 1949.29 1178.99 1949.5 1178.99 1949.71 1178.99 1950.57 1178.99 1950.99 1179.63L1978.97 1207.39 1920.03 1207.39 1948.01 1179.63ZM1989.86 1248.18 2017.19 1248.18 2013.99 1267.4 1988.36 1267.4 1989.86 1248.18ZM1953.77 1267.4 1953.77 1248.18 1981.32 1248.18 1979.61 1267.4 1953.77 1267.4ZM1953.77 1275.94 1978.97 1275.94 1977.26 1295.16 1953.77 1295.16 1953.77 1275.94ZM1945.23 1275.94 1945.23 1295.16 1921.53 1295.16 1919.82 1275.94 1945.23 1275.94ZM1945.23 1239.64 1917.04 1239.64 1915.33 1220.42 1945.23 1220.42 1945.23 1239.64ZM1953.77 1220.42 1983.67 1220.42 1981.96 1239.64 1953.77 1239.64 1953.77 1220.42ZM1910.64 1267.4 1885.01 1267.4 1881.81 1248.18 1909.14 1248.18 1910.64 1267.4ZM1917.68 1248.18 1945.23 1248.18 1945.23 1267.4 1919.18 1267.4 1917.68 1248.18ZM2018.69 1239.64 1990.71 1239.64 1992.42 1220.42 2022.1 1220.42 2018.69 1239.64ZM1996.91 1207.6 1996.91 1207.6 1960.18 1170.66C1957.4 1167.89 1953.56 1166.18 1949.5 1166.18 1945.44 1166.18 1941.81 1167.67 1939.04 1170.66L1902.31 1207.39 1902.09 1207.6 1861.95 1207.6 1877.75 1300.92C1878.39 1304.98 1882.02 1307.97 1886.08 1307.97L2012.49 1307.97C2016.55 1307.97 2020.18 1304.98 2020.82 1300.92L2037.05 1207.6 1996.91 1207.6Z"/></g></g></g><g clip-path="url(#clip4)"><g clip-path="url(#clip5)"><g clip-path="url(#clip6)"><path d="M1841.53 1037.4C1855.56 1043.22 1862.22 1059.3 1856.41 1073.33 1850.6 1087.37 1834.51 1094.03 1820.48 1088.22 1806.45 1082.4 1799.78 1066.32 1805.6 1052.29 1811.41 1038.25 1827.5 1031.59 1841.53 1037.4Z"/><path d="M1792.86 1101.15C1788.66 1102.73 1785.29 1105.97 1783.56 1110.11L1770.16 1151.12 1739.59 1147.97C1732.04 1147.19 1725.29 1152.69 1724.51 1160.24 1724.46 1160.69 1724.44 1161.13 1724.44 1161.58 1724.59 1168.81 1730.17 1174.76 1737.38 1175.38L1778.38 1179.62C1778.84 1179.66 1779.31 1179.69 1779.78 1179.69 1785.73 1179.68 1791 1175.86 1792.84 1170.21L1802.81 1139.67C1802.84 1139.48 1803.02 1139.35 1803.21 1139.38 1803.4 1139.41 1803.53 1139.59 1803.5 1139.78L1803.5 1162.5 1803.5 1162.5 1778.1 1248.44 1796.63 1248.44 1796.63 1344.69 1824.13 1344.69 1824.13 1248.44 1837.88 1248.44 1837.88 1344.69 1865.38 1344.69 1865.38 1248.44 1883.97 1248.44 1858.5 1162.5 1858.5 1139.78C1858.47 1139.59 1858.6 1139.41 1858.79 1139.38 1858.98 1139.36 1859.16 1139.49 1859.19 1139.68L1869.16 1170.21C1871 1175.86 1876.27 1179.68 1882.22 1179.69 1882.69 1179.69 1883.16 1179.66 1883.64 1179.62L1924.62 1175.39C1931.83 1174.76 1937.41 1168.81 1937.56 1161.58 1937.52 1153.99 1931.34 1147.86 1923.74 1147.9 1923.3 1147.9 1922.85 1147.92 1922.4 1147.97L1891.84 1151.12 1878.44 1110.11C1877.07 1105.93 1873.78 1102.67 1869.6 1101.33 1858.3 1096.99 1843.79 1097.19 1831 1097.19 1818.63 1097.19 1804 1097.2 1792.86 1101.15Z"/></g></g></g></g></svg>